<svg height="512" viewBox="0 0 32 32" width="512" xmlns="http://www.w3.org/2000/svg"><g id="Layer_2" data-name="Layer 2"><path d="m22.384 4.289a10.1 10.1 0 0 0 -8.379-2.1 9.833 9.833 0 0 0 -4.838 16.881 2.861 2.861 0 0 1 .833 2.075v1.855a2.985 2.985 0 0 0 1 2.22v1.78a3 3 0 0 0 3 3h4a3 3 0 0 0 3-3v-1.78a2.985 2.985 0 0 0 1-2.22v-1.854a2.88 2.88 0 0 1 .85-2.089 9.791 9.791 0 0 0 3.15-7.113 9.9 9.9 0 0 0 -3.616-7.655zm-2.384 17.711v1a1 1 0 0 1 -1 1h-6a1 1 0 0 1 -1-1v-1zm-1 5a1 1 0 0 1 -1 1h-4a1 1 0 0 1 -1-1v-1h6zm2.471-9.391a4.762 4.762 0 0 0 -1.328 2.391h-8.284a4.73 4.73 0 0 0 -1.312-2.377 7.834 7.834 0 0 1 3.837-13.467 8.4 8.4 0 0 1 1.595-.156 8.03 8.03 0 0 1 5.131 1.832 7.907 7.907 0 0 1 2.89 6.112 7.811 7.811 0 0 1 -2.529 5.665z"/><path d="m21.88 10.8a5.994 5.994 0 0 0 -4.68-4.68 1 1 0 0 0 -.4 1.96 4 4 0 0 1 3.121 3.12 1 1 0 1 0 1.959-.4z"/></g></svg>