<svg id="Layer_1" enable-background="new 0 0 512 512" height="512" viewBox="0 0 512 512" width="512" xmlns="http://www.w3.org/2000/svg"><g id="Layer_2_00000042708517903041133670000011808547803457903236_"><g id="design_tool" fill="rgb(0,0,0)"><path d="m362.3 237.7c9.2 2.7 19.2 3.2 28.8 4.6 69.7-.9 125.2-59.4 120.6-128.5-.4-6.5-4-14.8-9-18.4-7.2-5.3-13.5 1.7-18.9 7.1-12.9 13-25.6 26.3-39.1 38.7-2.9 2.7-9.2 4.1-13 2.9-47.2-14.6-47.2-14.8-63.3-61.6-.3-.7-.6-1.6-.8-2.4s-2.9-5.1 3.3-12.9c11.2-14 25.2-25.6 37.9-38.3 5.6-5.5 13.3-11.8 7.8-19.7-3.5-4.9-11.9-8.5-18.4-8.9-81.1-5-143.8 70.7-123.9 149.5 2.1 8.4.3 13.4-5.6 19.3-81.9 81.6-163.7 163.3-245.3 245.2-5 5-10 10-14 15.7-14.5 21-11.7 48.5 6.3 66.5 17.7 17.7 44.6 20.8 65.6 6.9 5.8-3.8 10.9-8.9 15.8-13.8 82.1-82 164.1-164 246-246.2 5.8-5.9 10.8-8.2 19.2-5.7z"/><path d="m158.2 233.3c2.7 2.7 5.5 5.2 7.4 7 25.2-25 49.4-49.2 74-73.5l.5-.5-1.8-1.9c-48-48.1-96-96.2-144.1-144.2-7.6-7.6-15.1-6.3-22.4 1-16.2 16.4-32.6 32.6-48.8 48.9-11.4 11.5-11.4 16.5.2 28.1 45 45.1 90 90.1 135 135.1z"/><path d="m344 273.3c-23.4 23.6-47.5 47.9-70.9 71.6l100.1 100.1 71.5-71z"/><path d="m464.4 397.7c-.9-1.8-2-3.5-3.2-5l-69.1 69c2.3 1.4 4.7 2.7 7.2 3.8 23.1 9.5 46.2 18.8 69.3 28.3 8.6 3.5 16.8 4.4 23.8-2.8s6.2-15.2 2.5-23.8c-10.3-23-20.3-46.3-30.5-69.5z"/></g></g></svg>