<svg fill="none" height="512" viewBox="0 0 24 24" width="512" xmlns="http://www.w3.org/2000/svg"><path clip-rule="evenodd" d="m6 5c-.55228 0-1 .44772-1 1v12c0 .5523.44772 1 1 1h12c.5523 0 1-.4477 1-1v-6c0-.5523.4477-1 1-1s1 .4477 1 1v6c0 1.6569-1.3431 3-3 3h-12c-1.65685 0-3-1.3431-3-3v-12c0-1.65685 1.34315-3 3-3h10c.5523 0 1 .44772 1 1s-.4477 1-1 1zm14.2929-.70711c.3905-.39052 1.0237-.39052 1.4142 0 .3905.39053.3905 1.02369 0 1.41422l-9 8.99999c-.3905.3905-1.0237.3905-1.4142 0l-3.00001-3c-.39052-.3905-.39052-1.0237 0-1.4142.39053-.39053 1.02369-.39053 1.41422 0l2.29289 2.2929z" fill="rgb(0,0,0)" fill-rule="evenodd"/></svg>