<svg height="512pt" viewBox="-46 0 512 512" width="512pt" xmlns="http://www.w3.org/2000/svg"><path d="m180 472.597656 33.601562-19.796875c11.699219 10.800781 25.796876 18.597657 41.398438 23.398438v35.800781h60v-35.800781c15.601562-4.800781 29.699219-12.597657 41.398438-23.398438l33.601562 19.796875 30-52.199218-33.300781-19.5c2.101562-8.097657 3.300781-16.199219 3.300781-24.898438 0-8.703125-1.199219-16.800781-3.300781-24.902344l33.300781-19.5-30-52.199218-33.601562 19.800781c-11.699219-10.800781-25.796876-18.597657-41.398438-23.398438v-34.800781h-60v34.800781c-15.601562 4.800781-29.699219 12.597657-41.398438 23.398438l-33.601562-19.800781-30 52.199218 33.300781 19.503906c-2.101562 8.097657-3.300781 16.199219-3.300781 24.898438s1.199219 16.800781 3.300781 24.898438l-33.300781 19.5zm105-141.597656c24.902344 0 45 20.097656 45 45 0 24.898438-20.097656 45-45 45s-45-20.101562-45-45c0-24.902344 20.097656-45 45-45zm0 0"/><path d="m60 76c0 41.421875 33.578125 75 75 75s75-33.578125 75-75-33.578125-76-75-76-75 34.578125-75 76zm0 0"/><path d="m0 391h140.835938l9.53125-5.582031c-.25-3.132813-.367188-6.269531-.367188-9.417969s.117188-6.285156.367188-9.417969l-41.207032-24.128906 59.941406-104.308594 42.347657 24.960938c4.335937-2.785157 8.847656-5.332031 13.550781-7.632813v-39.4375c-23.921875-21.550781-55.265625-35.035156-90-35.035156-74.558594 0-135 60.441406-135 135zm0 0"/></svg>