<svg id="Capa_1" enable-background="new 0 0 512 512" height="512" viewBox="0 0 512 512" width="512" xmlns="http://www.w3.org/2000/svg"><path d="m512 105.948c0-24.841-20.187-44.978-45.088-44.978h-421.824c-24.901 0-45.088 20.138-45.088 44.978v89.956c3.913 3.903 6.107 6.092 10.02 9.995h491.96c3.913-3.903 6.107-6.092 10.02-9.995z" fill="#fcbe29"/><path d="m512 105.948v89.956l-10.02 9.995h-245.98v-144.929h210.912c24.899 0 45.088 20.14 45.088 44.978z" fill="#fe9022"/><path d="m0 195.904v270.868c0 24.801 20.226 44.978 45.088 44.978h421.824c24.862 0 45.088-20.177 45.088-44.978v-270.868z" fill="#edf5ff"/><path d="m512 195.904v270.868c0 24.798-20.229 44.978-45.088 44.978h-210.912v-315.846z" fill="#d5e8fd"/><path d="m181.354 44.978v60.97c0 24.798-20.229 44.978-45.088 44.978-8.296 0-15.029-6.717-15.029-14.993s6.733-14.993 15.029-14.993c8.286 0 15.029-6.727 15.029-14.993v-60.97c0-8.266-6.743-14.993-15.029-14.993s-15.029 6.727-15.029 14.993v15.993h-30.059v-15.992c0-24.798 20.23-44.978 45.088-44.978s45.088 20.18 45.088 44.978z" fill="#d5e8fd"/><path d="m421.824 44.978v60.97c0 24.798-20.229 44.978-45.088 44.978-8.296 0-15.029-6.717-15.029-14.993s6.733-14.993 15.029-14.993c8.286 0 15.029-6.727 15.029-14.993v-60.97c0-8.266-6.743-14.993-15.029-14.993s-15.029 6.727-15.029 14.993v15.993h-30.059v-15.992c0-24.798 20.229-44.978 45.088-44.978s45.088 20.18 45.088 44.978z" fill="#b6dbfe"/><path d="m301.589 44.978v60.97c0 24.798-20.229 44.978-45.088 44.978-8.296 0-15.029-6.717-15.029-14.993s6.733-14.993 15.029-14.993c8.286 0 15.029-6.727 15.029-14.993v-60.97c0-8.266-6.743-14.993-15.029-14.993s-15.029 6.727-15.029 14.993v15.993h-30.059v-15.992c0-24.798 20.229-44.978 45.088-44.978s45.088 20.18 45.088 44.978z" fill="#d5e8fd"/><path d="m301.589 44.978v60.97c0 24.798-20.229 44.978-45.088 44.978-.17 0-.341 0-.501-.01v-29.965c.16-.01.331-.01.501-.01 8.286 0 15.029-6.727 15.029-14.993v-60.97c0-8.266-6.743-14.993-15.029-14.993-.17 0-.341 0-.501.01v-29.995h.501c24.859 0 45.088 20.18 45.088 44.978z" fill="#b6dbfe"/><path d="m510.247 360.824-149.042 151.176v-136.184c0-8.276 6.733-14.993 15.029-14.993h134.013z" fill="#b6dbfe"/><g fill="#214c80"><path d="m135.765 240.882h-30.059c-8.3 0-15.029 6.713-15.029 14.993s6.729 14.993 15.029 14.993h30.059c8.3 0 15.029-6.713 15.029-14.993.001-8.28-6.728-14.993-15.029-14.993z"/><path d="m135.765 300.853h-30.059c-8.3 0-15.029 6.713-15.029 14.993s6.729 14.993 15.029 14.993h30.059c8.3 0 15.029-6.713 15.029-14.993.001-8.28-6.728-14.993-15.029-14.993z"/><path d="m135.765 360.824h-30.059c-8.3 0-15.029 6.713-15.029 14.993s6.729 14.993 15.029 14.993h30.059c8.3 0 15.029-6.713 15.029-14.993.001-8.281-6.728-14.993-15.029-14.993z"/><path d="m135.765 420.795h-30.059c-8.3 0-15.029 6.713-15.029 14.993s6.729 14.993 15.029 14.993h30.059c8.3 0 15.029-6.713 15.029-14.993.001-8.281-6.728-14.993-15.029-14.993z"/><path d="m225.941 240.882h-30.059c-8.3 0-15.029 6.713-15.029 14.993s6.729 14.993 15.029 14.993h30.059c8.3 0 15.029-6.713 15.029-14.993.001-8.28-6.728-14.993-15.029-14.993z"/><path d="m225.941 300.853h-30.059c-8.3 0-15.029 6.713-15.029 14.993s6.729 14.993 15.029 14.993h30.059c8.3 0 15.029-6.713 15.029-14.993.001-8.28-6.728-14.993-15.029-14.993z"/><path d="m225.941 360.824h-30.059c-8.3 0-15.029 6.713-15.029 14.993s6.729 14.993 15.029 14.993h30.059c8.3 0 15.029-6.713 15.029-14.993.001-8.281-6.728-14.993-15.029-14.993z"/><path d="m225.941 420.795h-30.059c-8.3 0-15.029 6.713-15.029 14.993s6.729 14.993 15.029 14.993h30.059c8.3 0 15.029-6.713 15.029-14.993.001-8.281-6.728-14.993-15.029-14.993z"/></g><path d="m316.117 240.882h-30.059c-8.3 0-15.029 6.713-15.029 14.993s6.729 14.993 15.029 14.993h30.059c8.3 0 15.029-6.713 15.029-14.993.001-8.28-6.728-14.993-15.029-14.993z" fill="#193b66"/><path d="m316.117 300.853h-30.059c-8.3 0-15.029 6.713-15.029 14.993s6.729 14.993 15.029 14.993h30.059c8.3 0 15.029-6.713 15.029-14.993.001-8.28-6.728-14.993-15.029-14.993z" fill="#193b66"/><path d="m316.117 360.824h-30.059c-8.3 0-15.029 6.713-15.029 14.993s6.729 14.993 15.029 14.993h30.059c8.3 0 15.029-6.713 15.029-14.993.001-8.281-6.728-14.993-15.029-14.993z" fill="#193b66"/><path d="m316.117 420.795h-30.059c-8.3 0-15.029 6.713-15.029 14.993s6.729 14.993 15.029 14.993h30.059c8.3 0 15.029-6.713 15.029-14.993.001-8.281-6.728-14.993-15.029-14.993z" fill="#193b66"/><path d="m376.235 270.868h30.059c8.3 0 15.029-6.713 15.029-14.993s-6.729-14.993-15.029-14.993h-30.059c-8.3 0-15.029 6.713-15.029 14.993-.001 8.28 6.728 14.993 15.029 14.993z" fill="#193b66"/><path d="m406.294 300.853h-30.059c-8.3 0-15.029 6.713-15.029 14.993s6.729 14.993 15.029 14.993h30.059c8.3 0 15.029-6.713 15.029-14.993s-6.729-14.993-15.029-14.993z" fill="#193b66"/></svg>