<svg xmlns="http://www.w3.org/2000/svg" xmlns:xlink="http://www.w3.org/1999/xlink" width="500" zoomAndPan="magnify" viewBox="0 0 375 374.999991" height="500" preserveAspectRatio="xMidYMid meet" version="1.0"><defs><g/><clipPath id="03842648de"><path d="M 95.996094 178.203125 L 279 178.203125 L 279 196.796875 L 95.996094 196.796875 Z M 95.996094 178.203125 " clip-rule="nonzero"/></clipPath></defs><rect x="-37.5" width="450" fill="#ffffff" y="-37.499999" height="449.999989" fill-opacity="1"/><rect x="-37.5" width="450" fill="#ffffff" y="-37.499999" height="449.999989" fill-opacity="1"/><rect x="-37.5" width="450" fill="#ffffff" y="-37.499999" height="449.999989" fill-opacity="1"/><g fill="#000000" fill-opacity="1"><g transform="translate(100.682053, 239.249984)"><g><path d="M 62.171875 -35.28125 C 63.210938 -35.28125 63.734375 -36.210938 63.734375 -38.078125 L 63.734375 -71.96875 C 63.734375 -73.832031 63.210938 -74.765625 62.171875 -74.765625 C 61.242188 -74.765625 60.726562 -73.832031 60.625 -71.96875 C 60.101562 -66.789062 58.78125 -62.878906 56.65625 -60.234375 C 54.53125 -57.585938 51.5 -56.265625 47.5625 -56.265625 L 38.078125 -56.265625 L 38.078125 -102.4375 L 50.046875 -102.4375 C 54.085938 -102.4375 57.632812 -101.707031 60.6875 -100.25 C 63.75 -98.800781 66.34375 -96.910156 68.46875 -94.578125 C 70.59375 -92.253906 72.195312 -89.640625 73.28125 -86.734375 C 74.375 -83.828125 75.023438 -80.925781 75.234375 -78.03125 C 75.234375 -76.6875 75.75 -76.015625 76.78125 -76.015625 C 77.820312 -76.015625 78.34375 -76.6875 78.34375 -78.03125 L 77.09375 -100.5625 C 76.988281 -102.226562 76.519531 -103.367188 75.6875 -103.984375 C 74.863281 -104.609375 73.675781 -104.921875 72.125 -104.921875 L 4.65625 -104.921875 L 4.65625 -102.4375 L 13.0625 -102.4375 L 13.0625 -2.484375 L 4.65625 -2.484375 L 4.65625 0 L 78.5 0 C 80.15625 0 81.265625 -0.410156 81.828125 -1.234375 C 82.398438 -2.066406 82.6875 -3.207031 82.6875 -4.65625 L 82.6875 -30.15625 C 82.6875 -31.8125 82.171875 -32.640625 81.140625 -32.640625 C 80.097656 -32.640625 79.425781 -31.8125 79.125 -30.15625 C 78.289062 -26.320312 77.40625 -22.71875 76.46875 -19.34375 C 75.539062 -15.976562 74.144531 -13.050781 72.28125 -10.5625 C 70.414062 -8.082031 67.953125 -6.113281 64.890625 -4.65625 C 61.835938 -3.207031 57.820312 -2.484375 52.84375 -2.484375 L 38.078125 -2.484375 L 38.078125 -53.78125 L 47.5625 -53.78125 C 51.5 -53.78125 54.53125 -52.484375 56.65625 -49.890625 C 58.78125 -47.304688 60.101562 -43.367188 60.625 -38.078125 C 60.726562 -36.210938 61.242188 -35.28125 62.171875 -35.28125 Z M 62.171875 -35.28125 "/></g></g></g><g fill="#000000" fill-opacity="1"><g transform="translate(182.442101, 239.249984)"><g><path d="M 86.578125 -81.140625 C 86.578125 -85.285156 85.671875 -88.859375 83.859375 -91.859375 C 82.046875 -94.867188 79.476562 -97.359375 76.15625 -99.328125 C 72.84375 -101.296875 68.90625 -102.71875 64.34375 -103.59375 C 59.789062 -104.476562 54.71875 -104.921875 49.125 -104.921875 L 4.96875 -104.921875 L 4.96875 -102.4375 L 13.375 -102.4375 L 13.375 -2.484375 L 4.96875 -2.484375 L 4.96875 0 L 53.46875 0 C 58.132812 0 62.566406 -0.460938 66.765625 -1.390625 C 70.960938 -2.328125 74.640625 -3.910156 77.796875 -6.140625 C 80.953125 -8.367188 83.488281 -11.375 85.40625 -15.15625 C 87.320312 -18.9375 88.28125 -23.625 88.28125 -29.21875 C 88.28125 -34.195312 87.242188 -38.394531 85.171875 -41.8125 C 83.109375 -45.226562 80.46875 -48.023438 77.25 -50.203125 C 74.039062 -52.378906 70.570312 -54.035156 66.84375 -55.171875 C 63.113281 -56.316406 59.640625 -57.046875 56.421875 -57.359375 C 59.640625 -57.671875 63.035156 -58.132812 66.609375 -58.75 C 70.179688 -59.375 73.441406 -60.539062 76.390625 -62.25 C 79.347656 -63.957031 81.785156 -66.285156 83.703125 -69.234375 C 85.617188 -72.191406 86.578125 -76.160156 86.578125 -81.140625 Z M 38.390625 -58.28125 L 38.390625 -102.4375 L 46.328125 -102.4375 C 51.609375 -102.4375 55.3125 -101.0625 57.4375 -98.3125 C 59.5625 -95.5625 60.625 -90.925781 60.625 -84.40625 L 60.625 -77.875 C 60.625 -71.550781 59.613281 -66.703125 57.59375 -63.328125 C 55.570312 -59.960938 52.226562 -58.28125 47.5625 -58.28125 Z M 38.390625 -2.484375 L 38.390625 -55.796875 L 49.28125 -55.796875 C 52.175781 -55.796875 54.476562 -55.273438 56.1875 -54.234375 C 57.894531 -53.203125 59.210938 -51.675781 60.140625 -49.65625 C 61.078125 -47.632812 61.675781 -45.171875 61.9375 -42.265625 C 62.195312 -39.367188 62.328125 -36.109375 62.328125 -32.484375 L 62.328125 -25.953125 C 62.328125 -22.640625 62.273438 -19.53125 62.171875 -16.625 C 62.066406 -13.726562 61.597656 -11.242188 60.765625 -9.171875 C 59.941406 -7.097656 58.648438 -5.460938 56.890625 -4.265625 C 55.128906 -3.078125 52.59375 -2.484375 49.28125 -2.484375 Z M 38.390625 -2.484375 "/></g></g></g><g clip-path="url(#03842648de)"><path fill="#ffffff" d="M 95.996094 178.203125 L 278.910156 178.203125 L 278.910156 196.269531 L 95.996094 196.269531 Z M 95.996094 178.203125 " fill-opacity="1" fill-rule="nonzero"/></g><g fill="#9f9a73" fill-opacity="1"><g transform="translate(116.841225, 191.56934)"><g><path d="M 5.90625 -7.4375 L 5.90625 -6.484375 L 2.0625 -6.484375 L 2.0625 -4.21875 L 5.484375 -4.21875 L 5.484375 -3.265625 L 2.0625 -3.265625 L 2.0625 -0.96875 L 6.046875 -0.96875 L 6.046875 0 L 1.0625 0 L 1.0625 -7.4375 Z M 5.90625 -7.4375 "/></g></g></g><g fill="#9f9a73" fill-opacity="1"><g transform="translate(125.309831, 191.56934)"><g><path d="M 5.15625 0 L 3.40625 -2.75 C 3.351562 -2.738281 3.273438 -2.734375 3.171875 -2.734375 L 2.0625 -2.734375 L 2.0625 0 L 1.0625 0 L 1.0625 -7.4375 L 3.046875 -7.4375 C 3.554688 -7.4375 4.007812 -7.347656 4.40625 -7.171875 C 4.800781 -6.992188 5.113281 -6.726562 5.34375 -6.375 C 5.570312 -6.03125 5.6875 -5.613281 5.6875 -5.125 C 5.6875 -4.664062 5.582031 -4.242188 5.375 -3.859375 C 5.175781 -3.484375 4.867188 -3.191406 4.453125 -2.984375 L 6.328125 0 Z M 3.140625 -3.703125 C 3.679688 -3.703125 4.066406 -3.84375 4.296875 -4.125 C 4.535156 -4.40625 4.65625 -4.726562 4.65625 -5.09375 C 4.65625 -5.3125 4.601562 -5.523438 4.5 -5.734375 C 4.40625 -5.953125 4.25 -6.128906 4.03125 -6.265625 C 3.820312 -6.410156 3.550781 -6.484375 3.21875 -6.484375 L 2.0625 -6.484375 L 2.0625 -3.703125 Z M 3.140625 -3.703125 "/></g></g></g><g fill="#9f9a73" fill-opacity="1"><g transform="translate(133.850378, 191.56934)"><g><path d="M 7.015625 0.328125 L 5.28125 -4.109375 L 3.375 0.34375 L 0.421875 -7.40625 L 1.578125 -7.40625 L 3.5 -2 L 4.796875 -5.359375 L 4 -7.40625 L 4.984375 -7.40625 L 7.046875 -2.109375 L 8.890625 -7.40625 L 9.953125 -7.40625 Z M 7.015625 0.328125 "/></g></g></g><g fill="#9f9a73" fill-opacity="1"><g transform="translate(145.96747, 191.56934)"><g><path d="M 4.96875 -1.953125 L 2.109375 -1.953125 L 1.3125 0 L 0.328125 0 L 3.578125 -7.734375 L 3.640625 -7.734375 L 6.890625 0 L 5.734375 0 Z M 4.625 -2.8125 L 3.5625 -5.53125 L 2.46875 -2.8125 Z M 4.625 -2.8125 "/></g></g></g><g fill="#9f9a73" fill-opacity="1"><g transform="translate(154.929395, 191.56934)"><g><path d="M 7.546875 -7.4375 L 7.546875 0.25 L 7.515625 0.25 L 2.0625 -5.296875 L 2.078125 0 L 1.0625 0 L 1.0625 -7.65625 L 1.125 -7.65625 L 6.5625 -2.0625 L 6.546875 -7.4375 Z M 7.546875 -7.4375 "/></g></g></g><g fill="#9f9a73" fill-opacity="1"><g transform="translate(165.29933, 191.56934)"><g><path d="M 7.546875 -7.4375 L 7.546875 0.25 L 7.515625 0.25 L 2.0625 -5.296875 L 2.078125 0 L 1.0625 0 L 1.0625 -7.65625 L 1.125 -7.65625 L 6.5625 -2.0625 L 6.546875 -7.4375 Z M 7.546875 -7.4375 "/></g></g></g><g fill="#9f9a73" fill-opacity="1"><g transform="translate(175.669265, 191.56934)"><g/></g></g><g fill="#9f9a73" fill-opacity="1"><g transform="translate(180.674367, 191.56934)"><g><path d="M 4.375 -3.859375 C 4.800781 -3.691406 5.132812 -3.453125 5.375 -3.140625 C 5.625 -2.835938 5.75 -2.488281 5.75 -2.09375 C 5.75 -1.613281 5.632812 -1.21875 5.40625 -0.90625 C 5.175781 -0.59375 4.875 -0.363281 4.5 -0.21875 C 4.132812 -0.0703125 3.726562 0 3.28125 0 L 1.0625 0 L 1.0625 -7.4375 L 2.984375 -7.4375 C 3.753906 -7.4375 4.347656 -7.28125 4.765625 -6.96875 C 5.179688 -6.65625 5.390625 -6.1875 5.390625 -5.5625 C 5.390625 -5.164062 5.300781 -4.820312 5.125 -4.53125 C 4.945312 -4.25 4.695312 -4.023438 4.375 -3.859375 Z M 2.0625 -4.1875 L 3.203125 -4.1875 C 3.578125 -4.1875 3.863281 -4.296875 4.0625 -4.515625 C 4.257812 -4.734375 4.359375 -5.015625 4.359375 -5.359375 C 4.359375 -5.734375 4.238281 -6.015625 4 -6.203125 C 3.769531 -6.390625 3.445312 -6.484375 3.03125 -6.484375 L 2.0625 -6.484375 Z M 3.234375 -0.921875 C 3.671875 -0.921875 4.03125 -1.019531 4.3125 -1.21875 C 4.59375 -1.414062 4.734375 -1.703125 4.734375 -2.078125 C 4.734375 -2.460938 4.578125 -2.75 4.265625 -2.9375 C 3.960938 -3.125 3.597656 -3.21875 3.171875 -3.21875 L 2.0625 -3.21875 L 2.0625 -0.921875 Z M 3.234375 -0.921875 "/></g></g></g><g fill="#9f9a73" fill-opacity="1"><g transform="translate(188.793539, 191.56934)"><g><path d="M 5.15625 0 L 3.40625 -2.75 C 3.351562 -2.738281 3.273438 -2.734375 3.171875 -2.734375 L 2.0625 -2.734375 L 2.0625 0 L 1.0625 0 L 1.0625 -7.4375 L 3.046875 -7.4375 C 3.554688 -7.4375 4.007812 -7.347656 4.40625 -7.171875 C 4.800781 -6.992188 5.113281 -6.726562 5.34375 -6.375 C 5.570312 -6.03125 5.6875 -5.613281 5.6875 -5.125 C 5.6875 -4.664062 5.582031 -4.242188 5.375 -3.859375 C 5.175781 -3.484375 4.867188 -3.191406 4.453125 -2.984375 L 6.328125 0 Z M 3.140625 -3.703125 C 3.679688 -3.703125 4.066406 -3.84375 4.296875 -4.125 C 4.535156 -4.40625 4.65625 -4.726562 4.65625 -5.09375 C 4.65625 -5.3125 4.601562 -5.523438 4.5 -5.734375 C 4.40625 -5.953125 4.25 -6.128906 4.03125 -6.265625 C 3.820312 -6.410156 3.550781 -6.484375 3.21875 -6.484375 L 2.0625 -6.484375 L 2.0625 -3.703125 Z M 3.140625 -3.703125 "/></g></g></g><g fill="#9f9a73" fill-opacity="1"><g transform="translate(197.334088, 191.56934)"><g><path d="M 1.96875 -2.625 C 1.96875 -2.300781 2.046875 -2.003906 2.203125 -1.734375 C 2.367188 -1.472656 2.585938 -1.265625 2.859375 -1.109375 C 3.128906 -0.960938 3.425781 -0.890625 3.75 -0.890625 C 4.09375 -0.890625 4.398438 -0.960938 4.671875 -1.109375 C 4.953125 -1.265625 5.171875 -1.472656 5.328125 -1.734375 C 5.492188 -2.003906 5.578125 -2.300781 5.578125 -2.625 L 5.578125 -7.4375 L 6.546875 -7.4375 L 6.546875 -2.59375 C 6.546875 -2.070312 6.421875 -1.609375 6.171875 -1.203125 C 5.929688 -0.796875 5.597656 -0.476562 5.171875 -0.25 C 4.742188 -0.03125 4.269531 0.078125 3.75 0.078125 C 3.238281 0.078125 2.769531 -0.03125 2.34375 -0.25 C 1.914062 -0.476562 1.582031 -0.796875 1.34375 -1.203125 C 1.101562 -1.609375 0.984375 -2.070312 0.984375 -2.59375 L 0.984375 -7.4375 L 1.96875 -7.4375 Z M 1.96875 -2.625 "/></g></g></g><g fill="#9f9a73" fill-opacity="1"><g transform="translate(206.614606, 191.56934)"><g><path d="M 7.546875 -7.4375 L 7.546875 0.25 L 7.515625 0.25 L 2.0625 -5.296875 L 2.078125 0 L 1.0625 0 L 1.0625 -7.65625 L 1.125 -7.65625 L 6.5625 -2.0625 L 6.546875 -7.4375 Z M 7.546875 -7.4375 "/></g></g></g><g fill="#9f9a73" fill-opacity="1"><g transform="translate(216.984541, 191.56934)"><g><path d="M 5.90625 -7.4375 L 5.90625 -6.484375 L 2.0625 -6.484375 L 2.0625 -4.21875 L 5.484375 -4.21875 L 5.484375 -3.265625 L 2.0625 -3.265625 L 2.0625 -0.96875 L 6.046875 -0.96875 L 6.046875 0 L 1.0625 0 L 1.0625 -7.4375 Z M 5.90625 -7.4375 "/></g></g></g><g fill="#9f9a73" fill-opacity="1"><g transform="translate(225.453148, 191.56934)"><g><path d="M 5.453125 -7.4375 L 5.453125 -6.484375 L 3.46875 -6.484375 L 3.46875 0 L 2.46875 0 L 2.46875 -6.484375 L 0.53125 -6.484375 L 0.53125 -7.4375 Z M 5.453125 -7.4375 "/></g></g></g><g fill="#9f9a73" fill-opacity="1"><g transform="translate(233.192051, 191.56934)"><g><path d="M 5.90625 -7.4375 L 5.90625 -6.484375 L 2.0625 -6.484375 L 2.0625 -4.21875 L 5.484375 -4.21875 L 5.484375 -3.265625 L 2.0625 -3.265625 L 2.0625 -0.96875 L 6.046875 -0.96875 L 6.046875 0 L 1.0625 0 L 1.0625 -7.4375 Z M 5.90625 -7.4375 "/></g></g></g><g fill="#9f9a73" fill-opacity="1"><g transform="translate(241.660659, 191.56934)"><g><path d="M 4.96875 -1.953125 L 2.109375 -1.953125 L 1.3125 0 L 0.328125 0 L 3.578125 -7.734375 L 3.640625 -7.734375 L 6.890625 0 L 5.734375 0 Z M 4.625 -2.8125 L 3.5625 -5.53125 L 2.46875 -2.8125 Z M 4.625 -2.8125 "/></g></g></g><g fill="#9f9a73" fill-opacity="1"><g transform="translate(250.622583, 191.56934)"><g><path d="M 1.96875 -2.625 C 1.96875 -2.300781 2.046875 -2.003906 2.203125 -1.734375 C 2.367188 -1.472656 2.585938 -1.265625 2.859375 -1.109375 C 3.128906 -0.960938 3.425781 -0.890625 3.75 -0.890625 C 4.09375 -0.890625 4.398438 -0.960938 4.671875 -1.109375 C 4.953125 -1.265625 5.171875 -1.472656 5.328125 -1.734375 C 5.492188 -2.003906 5.578125 -2.300781 5.578125 -2.625 L 5.578125 -7.4375 L 6.546875 -7.4375 L 6.546875 -2.59375 C 6.546875 -2.070312 6.421875 -1.609375 6.171875 -1.203125 C 5.929688 -0.796875 5.597656 -0.476562 5.171875 -0.25 C 4.742188 -0.03125 4.269531 0.078125 3.75 0.078125 C 3.238281 0.078125 2.769531 -0.03125 2.34375 -0.25 C 1.914062 -0.476562 1.582031 -0.796875 1.34375 -1.203125 C 1.101562 -1.609375 0.984375 -2.070312 0.984375 -2.59375 L 0.984375 -7.4375 L 1.96875 -7.4375 Z M 1.96875 -2.625 "/></g></g></g></svg>